<svg xmlns="http://www.w3.org/2000/svg" version="1.1" xmlns:xlink="http://www.w3.org/1999/xlink" xmlns:svgjs="http://svgjs.dev/svgjs" width="1500" height="1500" viewBox="0 0 1500 1500"><rect width="1500" height="1500" fill="#000000"></rect><g transform="matrix(0.6666666666666666,0,0,0.6666666666666666,250.2375089477901,367.9762483130905)"><svg viewBox="0 0 323 247" data-background-color="#3d2200" preserveAspectRatio="xMidYMid meet" height="1147" width="1500" xmlns="http://www.w3.org/2000/svg" xmlns:xlink="http://www.w3.org/1999/xlink"><g id="tight-bounds" transform="matrix(1,0,0,1,-0.07671539013617235,-0.09999999999999432)"><svg viewBox="0 0 323.15343078027234 247.2" height="247.2" width="323.15343078027234"><g><svg viewBox="0 0 395.52 302.5576543127598" height="247.2" width="323.15343078027234"><g transform="matrix(1,0,0,1,0,220.967677618853)"><svg viewBox="0 0 395.52 81.58997669390679" height="81.58997669390679" width="395.52"><g id="textblocktransform"><svg viewBox="0 0 395.52 81.58997669390679" height="81.58997669390679" width="395.52" id="textblock"><g><svg viewBox="0 0 395.52 44.00573476702508" height="44.00573476702508" width="395.52"><g transform="matrix(1,0,0,1,0,0)"><svg width="395.52" viewBox="-12.15 -27 334.75 37.25" height="44.00573476702508" data-palette-color="#f8fddd"><path d="M20.4-24.45L20.4-24.45Q20.4-22.9 19.5-22.9L19.5-22.9Q19.25-22.9 19-23.3L19-23.3Q18.55-24.1 17.5-24.1L17.5-24.1Q15.2-24.1 13.2-20.8L13.2-20.8Q12.8-20.15 10.7-16.1L10.7-16.1 11.3-16.1Q16.75-16.1 18.55-16.25L18.55-16.25Q18.75-16.2 18.75-16.05L18.75-16.05Q18.75-15.65 15.2-14.95L15.2-14.95Q11.85-14.4 9.7-14L9.7-14Q8.15-10.8 5.95-6.4L5.95-6.4Q1.45 2 0 4.05L0 4.05Q-4.35 10.25-8.5 10.25L-8.5 10.25Q-9.95 10.25-11.03 9.03-12.1 7.8-12.15 6.3L-12.15 6.3Q-12 5.7-11.7 5.7L-11.7 5.7Q-11.55 5.7-11.5 6.05L-11.5 6.05Q-11.2 7.35-10.5 8.05-9.8 8.75-9.05 8.75L-9.05 8.75Q-4.8 8.75-1.3 3.5L-1.3 3.5Q0.7 0.5 4.15-7.3L4.15-7.3 6.85-13.8Q1.85-13.85 1.85-15L1.85-15Q1.85-15.5 2.33-15.85 2.8-16.2 3.15-16.2L3.15-16.2 7.85-16.1Q12.75-27 16.85-27L16.85-27Q18.4-27 20-25.5L20-25.5Q20.4-25.1 20.4-24.45ZM25.15-10.6L25.15-10.6Q25.15-8.85 21.8-4.75L21.8-4.75Q17.85 0.1 15.05 0.1L15.05 0.1 14.25 0.1Q12.95 0.1 12.2-1.25L12.2-1.25Q11.6-2.2 11.6-3.35L11.6-3.35Q11.6-6.35 15.97-11.78 20.35-17.2 23.05-17.2L23.05-17.2Q25.6-17.2 25.6-14.5L25.6-14.5Q25.6-13.8 25.35-12.7L25.35-12.7Q25.4-12.55 26.3-12.55 27.2-12.55 29.05-13.5L29.05-13.5Q29-12.65 25.1-11.05L25.1-11.05Q25.15-10.85 25.15-10.6ZM21.9-13.2L21.9-13.2Q20.2-13.2 17.07-9.2 13.95-5.2 13.95-3.3 13.95-1.4 15.15-1.4L15.15-1.4Q17.3-1.4 20.6-5.3 23.9-9.2 23.9-10.9L23.9-10.9Q23.1-11.35 21.9-13.2ZM39.2-10.6L39.2-10.6Q39.2-8.85 35.84-4.75L35.84-4.75Q31.89 0.1 29.09 0.1L29.09 0.1 28.29 0.1Q27 0.1 26.25-1.25L26.25-1.25Q25.64-2.2 25.64-3.35L25.64-3.35Q25.64-6.35 30.02-11.78 34.39-17.2 37.09-17.2L37.09-17.2Q39.64-17.2 39.64-14.5L39.64-14.5Q39.64-13.8 39.39-12.7L39.39-12.7Q39.45-12.55 40.34-12.55 41.25-12.55 43.09-13.5L43.09-13.5Q43.05-12.65 39.14-11.05L39.14-11.05Q39.2-10.85 39.2-10.6ZM35.95-13.2L35.95-13.2Q34.24-13.2 31.12-9.2 28-5.2 28-3.3 28-1.4 29.2-1.4L29.2-1.4Q31.34-1.4 34.64-5.3 37.95-9.2 37.95-10.9L37.95-10.9Q37.14-11.35 35.95-13.2ZM56.59-15.15L56.59-15.15Q62.19-24.25 64.39-24.25L64.39-24.25Q64.74-24.25 65.37-24.03 65.99-23.8 65.99-23.35L65.99-23.35Q65.99-23.1 65.74-22.7L65.74-22.7Q61.74-17.8 59.79-15.35L59.79-15.35Q53.89-7.9 53.29-4.65L53.29-4.65Q53.14-3.95 53.14-3.25L53.14-3.25Q53.14-1 54.99-1L54.99-1Q58.69-1 64.64-7.85L64.64-7.85Q65.14-8.35 65.49-8.43 65.84-8.5 65.84-8.25 65.84-8 65.54-7.65L65.54-7.65Q59.74-0.7 55.24 0.1L55.24 0.1Q54.99 0.15 54.54 0.15L54.54 0.15Q52.99 0.15 52.22-0.93 51.44-2 51.44-3.25L51.44-3.25Q51.44-4.65 51.99-6.35L51.99-6.35 47.94-2.3Q45.19 0.25 43.62 0.25 42.04 0.25 40.99-0.6L40.99-0.6Q39.74-1.55 39.74-3.25L39.74-3.25Q39.74-6.9 44.84-11.98 49.94-17.05 54.19-17.05L54.19-17.05Q55.59-17.05 56.14-16.3L56.14-16.3Q56.34-16.05 56.59-15.15ZM41.84-2.65L41.84-2.65Q41.84-0.85 43.09-0.85L43.09-0.85Q45.24-0.85 50.24-6.75L50.24-6.75Q51.14-7.8 56.24-14.6L56.24-14.6Q55.89-15.2 55.04-15.2L55.04-15.2Q51.94-15.2 46.89-10.48 41.84-5.75 41.84-2.65ZM89.84-15.15L89.84-15.15Q95.44-24.25 97.64-24.25L97.64-24.25Q97.99-24.25 98.61-24.03 99.24-23.8 99.24-23.35L99.24-23.35Q99.24-23.1 98.99-22.7L98.99-22.7Q94.99-17.8 93.04-15.35L93.04-15.35Q87.14-7.9 86.54-4.65L86.54-4.65Q86.39-3.95 86.39-3.25L86.39-3.25Q86.39-1 88.24-1L88.24-1Q91.94-1 97.89-7.85L97.89-7.85Q98.39-8.35 98.74-8.43 99.09-8.5 99.09-8.25 99.09-8 98.79-7.65L98.79-7.65Q92.99-0.7 88.49 0.1L88.49 0.1Q88.24 0.15 87.79 0.15L87.79 0.15Q86.24 0.15 85.46-0.93 84.69-2 84.69-3.25L84.69-3.25Q84.69-4.65 85.24-6.35L85.24-6.35 81.19-2.3Q78.44 0.25 76.86 0.25 75.29 0.25 74.24-0.6L74.24-0.6Q72.99-1.55 72.99-3.25L72.99-3.25Q72.99-6.9 78.09-11.98 83.19-17.05 87.44-17.05L87.44-17.05Q88.84-17.05 89.39-16.3L89.39-16.3Q89.59-16.05 89.84-15.15ZM75.09-2.65L75.09-2.65Q75.09-0.85 76.34-0.85L76.34-0.85Q78.49-0.85 83.49-6.75L83.49-6.75Q84.39-7.8 89.49-14.6L89.49-14.6Q89.14-15.2 88.29-15.2L88.29-15.2Q85.19-15.2 80.14-10.48 75.09-5.75 75.09-2.65ZM99.34 0.65L99.34 0.65Q98.79 0.65 98.34 0.5L98.34 0.5Q95.14-0.4 95.14-3.1L95.14-3.1Q95.14-6.6 99.54-11.2 103.94-15.8 107.44-15.8L107.44-15.8Q108.59-15.8 109.31-15.18 110.04-14.55 110.04-13.65L110.04-13.65Q110.04-10.85 105.81-8.3 101.59-5.75 98.94-5.75L98.94-5.75Q98.54-5.75 98.24-5.85L98.24-5.85Q97.49-4.5 97.49-3L97.49-3Q97.49-0.4 99.96-0.4 102.44-0.4 106.39-3.75L106.39-3.75Q109.44-6.2 111.59-8.95L111.59-8.95Q112.04-9.55 112.36-9.55 112.69-9.55 112.69-9.25 112.69-8.95 112.29-8.4L112.29-8.4Q109.59-4.85 105.79-2.1 101.99 0.65 99.34 0.65ZM108.79-13.75L108.79-13.75Q108.79-14.35 107.51-14.35 106.24-14.35 103.89-12.4L103.89-12.4Q100.74-9.8 98.99-6.95L98.99-6.95Q99.29-6.85 99.64-6.85L99.64-6.85Q101.54-6.85 104.71-8.88 107.89-10.9 108.69-13.3L108.69-13.3Q108.79-13.55 108.79-13.75ZM111.58-2.5Q111.58-1 113.23-1 114.88-1 117.48-2.75 120.08-4.5 122.53-7.5L122.53-7.5Q123.13-8.3 123.48-8.3 123.83-8.3 123.83-8L123.83-8Q123.83-7.7 121.78-5.4L121.78-5.4Q116.78 0.1 113.43 0.1L113.43 0.1Q111.78 0.1 110.63-0.68 109.48-1.45 109.48-3.08 109.48-4.7 110.33-6.85L110.33-6.85Q111.78-10.25 114.98-15.4L114.98-15.4Q120.83-24.9 123.28-24.9L123.28-24.9Q123.78-24.9 124.31-24.53 124.83-24.15 124.88-23.7L124.88-23.7Q123.73-22.15 120.46-17.75 117.18-13.35 115.93-11.43 114.68-9.5 114.06-8.55 113.43-7.6 113.13-7.08 112.83-6.55 112.43-5.7L112.43-5.7Q111.58-4 111.58-2.5ZM132.63-20.4Q133.38-20.4 134.06-19.93 134.73-19.45 134.73-18.8 134.73-18.15 134.11-17.68 133.48-17.2 132.73-17.2 131.98-17.2 131.36-17.75 130.73-18.3 130.73-19L130.73-19Q130.73-20.4 132.63-20.4L132.63-20.4ZM123.58 0.55L123.58 0.55Q121.03 0.55 121.03-2.75L121.03-2.75Q121.03-5.45 123.98-10.23 126.93-15 128.73-15.05L128.73-15.05Q129.23-15.05 129.86-14.65 130.48-14.25 130.48-13.85L130.48-13.85Q130.23-13.5 129.88-13.08 129.53-12.65 129.13-12.15 128.73-11.65 128.03-10.73 127.33-9.8 126.68-8.95L126.68-8.95Q122.93-4.1 122.93-2.27 122.93-0.45 124.18-0.45L124.18-0.45Q125.23-0.45 127.03-1.6L127.03-1.6Q131.23-4.2 133.68-7.3L133.68-7.3Q134.58-8.45 134.91-8.45 135.23-8.45 135.23-8.05 135.23-7.65 134.08-6.45 132.93-5.25 132.26-4.55 131.58-3.85 131.33-3.63 131.08-3.4 130.41-2.78 129.73-2.15 129.38-1.9 129.03-1.65 128.38-1.15 127.73-0.65 127.23-0.43 126.73-0.2 126.08 0.1L126.08 0.1Q125.03 0.55 123.58 0.55ZM146.63-19.65L146.63-19.65Q148.13-19.65 149.18-18.65 150.23-17.65 150.23-15.85L150.23-15.85Q150.23-11.9 143.68-5.95L143.68-5.95Q138.13-0.95 134.73 0.15L134.73 0.15Q134.18 0.15 133.28-0.45 132.38-1.05 132.38-1.55L132.38-1.55Q132.38-2.65 134.78-9 137.18-15.35 138.08-16.1L138.08-16.1Q138.28-16.3 138.73-16.3 139.18-16.3 139.68-15.83 140.18-15.35 140.23-14.7L140.23-14.7Q140.23-14.65 137.75-8.9 135.28-3.15 135.43-2.05L135.43-2.05Q137.58-2.7 143.1-7.3 148.63-11.9 148.63-15.55L148.63-15.55Q148.63-17.75 146.43-18.75L146.43-18.75Q146.08-18.9 146.08-19.2L146.08-19.2Q146.08-19.65 146.63-19.65ZM150.68 0.65L150.68 0.65Q150.13 0.65 149.68 0.5L149.68 0.5Q146.48-0.4 146.48-3.1L146.48-3.1Q146.48-6.6 150.88-11.2 155.28-15.8 158.78-15.8L158.78-15.8Q159.93-15.8 160.65-15.18 161.38-14.55 161.38-13.65L161.38-13.65Q161.38-10.85 157.15-8.3 152.93-5.75 150.28-5.75L150.28-5.75Q149.88-5.75 149.58-5.85L149.58-5.85Q148.83-4.5 148.83-3L148.83-3Q148.83-0.4 151.3-0.4 153.78-0.4 157.73-3.75L157.73-3.75Q160.78-6.2 162.93-8.95L162.93-8.95Q163.38-9.55 163.7-9.55 164.03-9.55 164.03-9.25 164.03-8.95 163.63-8.4L163.63-8.4Q160.93-4.85 157.13-2.1 153.33 0.65 150.68 0.65ZM160.13-13.75L160.13-13.75Q160.13-14.35 158.85-14.35 157.58-14.35 155.23-12.4L155.23-12.4Q152.08-9.8 150.33-6.95L150.33-6.95Q150.63-6.85 150.98-6.85L150.98-6.85Q152.88-6.85 156.05-8.88 159.23-10.9 160.03-13.3L160.03-13.3Q160.13-13.55 160.13-13.75ZM171.17 0.25L171.17 0.25Q167.42 0.25 167.42-3.9L167.42-3.9Q167.42-6 168.52-8.5 169.62-11 170.92-12.7L170.92-12.7Q170.67-12.65 170.27-12.65L170.27-12.65Q169.07-12.65 168.27-14.35L168.27-14.35 164.57-9.55Q161.47-5.7 160.97-5.7L160.97-5.7Q160.72-5.7 160.72-5.9L160.72-5.9Q160.72-6.4 161.57-7.35L161.57-7.35Q165.92-12.4 167.72-15.9L167.72-15.9Q168.87-20.25 170.62-20.25L170.62-20.25Q171.77-20.25 171.77-19.25 171.77-18.25 170.52-16.7L170.52-16.7 169.32-15.1Q169.32-14.05 170.87-14.05L170.87-14.05Q171.77-14.05 172.87-14.7L172.87-14.7 174.17-15.5Q174.27-15.55 174.67-15.55 175.07-15.55 175.52-15.05 175.97-14.55 175.82-14.15L175.82-14.15 172.37-9.8Q169.17-5.7 169.17-3.33 169.17-0.95 171.37-0.95L171.37-0.95Q173.67-0.95 177.02-3.4L177.02-3.4Q179.02-4.85 180.67-6.65L180.67-6.65Q182.22-8.45 182.37-8.45L182.37-8.45Q182.72-8.45 182.72-8.08 182.72-7.7 182.27-7.2L182.27-7.2 180.67-5.4Q179.32-4 177.67-2.7L177.67-2.7Q173.72 0.25 171.17 0.25ZM177.87 5.8L177.87 5.8Q180.27 8.8 182.02 8.8L182.02 8.8Q184.87 8.8 188.17 4.25L188.17 4.25Q190.57 0.9 192.87-4.2L192.87-4.2 194.77-8.8 187.42-3.05Q184.02-0.4 181.97-0.4L181.97-0.4Q180.87-0.4 180.22-1.15 179.57-1.9 179.57-2.85L179.57-2.85Q179.57-5 183.27-9.93 186.97-14.85 188.67-14.85 190.37-14.85 190.37-13.7L190.37-13.7Q190.37-13.25 185.95-8.53 181.52-3.8 181.52-2.15L181.52-2.15Q181.52-1.5 182.37-1.5L182.37-1.5Q183.97-1.5 188.8-5.25 193.62-9 196.07-11.45L196.07-11.45Q196.62-12.1 197.62-13.4L197.62-13.4Q198.57-14.5 199.72-14.5 200.87-14.5 200.87-13.4L200.87-13.4Q200.87-13.2 198.62-9.85 196.37-6.5 196.27-6.3L196.27-6.3Q194.72-3.3 191.52 2.45L191.52 2.45Q186.67 10.25 181.82 10.25L181.82 10.25Q180.22 10.25 179.02 8.88 177.82 7.5 177.87 5.8ZM229.17-15.7L229.17-15.7Q229.17-16 229.47-16L229.47-16Q230.37-16 230.87-14.9L230.87-14.9Q231.47-13.95 231.47-11.6L231.47-11.6Q231.47-8 228.32-4.23 225.17-0.45 221.52-0.45L221.52-0.45Q219.77-0.45 218.69-2.15 217.62-3.85 217.62-5.65 217.62-7.45 218.42-10.05L218.42-10.05Q216.97-8.6 214.17-5.08 211.37-1.55 210.37 0.1L210.37 0.1Q209.87 0.1 208.99-0.45 208.12-1 208.12-1.5L208.12-1.5Q208.12-2.7 211.17-9.43 214.22-16.15 215.72-16.15L215.72-16.15Q216.27-16.15 216.72-15.63 217.17-15.1 217.17-14.83 217.17-14.55 214.44-9.68 211.72-4.8 211.77-3.8L211.77-3.8Q216.52-9.55 216.82-9.9L216.82-9.9Q221.67-15.5 223.17-15.5L223.17-15.5Q223.72-15.5 224.24-15.03 224.77-14.55 224.77-14.18 224.77-13.8 223.37-11.95 221.97-10.1 220.99-8.33 220.02-6.55 220.02-4.75L220.02-4.75Q220.02-1.6 222.12-1.6L222.12-1.6 222.77-1.6Q225.47-1.6 227.69-5.73 229.92-9.85 229.92-12.35L229.92-12.35Q229.92-14.35 229.27-15.45L229.27-15.45Q229.17-15.55 229.17-15.7ZM234.06 0.65L234.06 0.65Q233.51 0.65 233.06 0.5L233.06 0.5Q229.86-0.4 229.86-3.1L229.86-3.1Q229.86-6.6 234.26-11.2 238.66-15.8 242.16-15.8L242.16-15.8Q243.31-15.8 244.04-15.18 244.76-14.55 244.76-13.65L244.76-13.65Q244.76-10.85 240.54-8.3 236.31-5.75 233.66-5.75L233.66-5.75Q233.26-5.75 232.96-5.85L232.96-5.85Q232.21-4.5 232.21-3L232.21-3Q232.21-0.4 234.69-0.4 237.16-0.4 241.11-3.75L241.11-3.75Q244.16-6.2 246.31-8.95L246.31-8.95Q246.76-9.55 247.09-9.55 247.41-9.55 247.41-9.25 247.41-8.95 247.01-8.4L247.01-8.4Q244.31-4.85 240.51-2.1 236.71 0.65 234.06 0.65ZM243.51-13.75L243.51-13.75Q243.51-14.35 242.24-14.35 240.96-14.35 238.61-12.4L238.61-12.4Q235.46-9.8 233.71-6.95L233.71-6.95Q234.01-6.85 234.36-6.85L234.36-6.85Q236.26-6.85 239.44-8.88 242.61-10.9 243.41-13.3L243.41-13.3Q243.51-13.55 243.51-13.75ZM255.76-12.45L255.76-12.45Q255.76-15.85 257.86-15.85L257.86-15.85Q258.06-15.85 258.31-15.8L258.31-15.8Q259.16-15.65 259.16-14.5 259.16-13.35 258.76-11.6L258.76-11.6Q258.36-10.3 258.21-9.65L258.21-9.65Q258.36-8.8 259.04-7.48 259.71-6.15 260.89-6.15 262.06-6.15 263.51-7.75L263.51-7.75Q263.81-8.1 264.09-8.1 264.36-8.1 264.39-7.78 264.41-7.45 264.01-6.9L264.01-6.9Q262.46-5.05 260.76-5.05L260.76-5.05Q258.31-5.05 256.81-8.65L256.81-8.65Q255.26-5.1 252.41-2.53 249.56 0.05 246.76 0.05L246.76 0.05Q244.11 0.05 244.11-3.95L244.11-3.95Q244.11-7.1 249.99-15.55 255.86-24 258.96-24L258.96-24Q259.61-24 260.14-23.6 260.66-23.2 260.66-22.65L260.66-22.65Q260.66-22.7 259.94-21.9 259.21-21.1 255.99-17.6 252.76-14.1 249.66-9.9 246.56-5.7 246.56-3.4L246.56-3.4Q246.56-2.8 246.89-2.1 247.21-1.4 247.96-1.4L247.96-1.4Q250.16-1.4 253.11-4.8L253.11-4.8Q255.56-7.8 256.11-9.85L256.11-9.85Q255.76-10.9 255.76-12.45ZM273.41-1.8L271.81-0.75Q270.36 0.1 268.23 0.1 266.11 0.1 264.98-1.3 263.86-2.7 263.06-5.75L263.06-5.75Q262.16-4.85 261.81-4.85L261.81-4.85Q261.56-4.85 261.56-5.2 261.56-5.55 261.81-5.8L261.81-5.8Q263.46-7.85 267.41-11.7L267.41-11.7 273.71-17.6Q276.41-20.15 276.91-20.15L276.91-20.15Q278.51-20.15 278.51-18.95L278.51-18.95Q278.51-18.35 278.03-17.78 277.56-17.2 277.33-16.88 277.11-16.55 276.86-16.25L276.86-16.25Q275.96-14.7 275.03-9.85 274.11-5 273.61-3.1L273.61-3.1Q277.76-3.15 282.16-8.5L282.16-8.5Q282.66-9 282.91-9 283.16-9 283.16-8.68 283.16-8.35 282.71-7.8L282.71-7.8Q279.81-4.4 277.31-3.05L277.31-3.05Q275.81-2.3 273.41-1.8L273.41-1.8ZM265.06-6.3L265.06-6.3Q265.06-4.6 266.18-3.53 267.31-2.45 268.71-2.45 270.11-2.45 270.86-3L270.86-3Q271.86-3.55 272.83-7.6 273.81-11.65 274.01-14.75L274.01-14.75 274.21-16.45Q271.46-14.4 268.33-11.15 265.21-7.9 265.11-6.85L265.11-6.85Q265.06-6.55 265.06-6.3ZM291.41-20.4Q292.16-20.4 292.83-19.93 293.51-19.45 293.51-18.8 293.51-18.15 292.88-17.68 292.26-17.2 291.51-17.2 290.76-17.2 290.13-17.75 289.51-18.3 289.51-19L289.51-19Q289.51-20.4 291.41-20.4L291.41-20.4ZM282.36 0.55L282.36 0.55Q279.81 0.55 279.81-2.75L279.81-2.75Q279.81-5.45 282.76-10.23 285.71-15 287.51-15.05L287.51-15.05Q288.01-15.05 288.63-14.65 289.26-14.25 289.26-13.85L289.26-13.85Q289.01-13.5 288.66-13.08 288.31-12.65 287.91-12.15 287.51-11.65 286.81-10.73 286.11-9.8 285.46-8.95L285.46-8.95Q281.71-4.1 281.71-2.27 281.71-0.45 282.96-0.45L282.96-0.45Q284.01-0.45 285.81-1.6L285.81-1.6Q290.01-4.2 292.46-7.3L292.46-7.3Q293.36-8.45 293.68-8.45 294.01-8.45 294.01-8.05 294.01-7.65 292.86-6.45 291.71-5.25 291.03-4.55 290.36-3.85 290.11-3.63 289.86-3.4 289.18-2.78 288.51-2.15 288.16-1.9 287.81-1.65 287.16-1.15 286.51-0.65 286.01-0.43 285.51-0.2 284.86 0.1L284.86 0.1Q283.81 0.55 282.36 0.55ZM304.9-16.1L304.9-16.1 312.1-16.2Q312.25-16.1 312.25-16.05L312.25-16.05Q312.25-15.6 306.03-14.8 299.8-14 299.3-13.85L299.3-13.85Q298.35-13 295.8-8.78 293.25-4.55 293.25-2.6L293.25-2.6Q293.25-0.75 295.8-0.75L295.8-0.75Q297-0.75 298.95-1.5 300.9-2.25 301.95-2.9L301.95-2.9Q304.75-4.65 307.95-8.05L307.95-8.05Q308.65-8.75 308.9-8.75L308.9-8.75Q309.05-8.75 309.05-8.45 309.05-8.15 308.3-7.25L308.3-7.25Q305.7-4.05 302.45-2.1L302.45-2.1Q298.55 0.3 295 0.3L295 0.3Q293.45 0.3 292.48-0.38 291.5-1.05 291.5-3.1 291.5-5.15 293.3-8.72 295.1-12.3 296.05-14.05L296.05-14.05Q295.35-13.9 294.85-13.9L294.85-13.9Q293.4-13.9 293.4-15.05L293.4-15.05Q293.4-15.9 294.6-16.25L294.6-16.25Q294.75-16.25 295.05-16.3L295.05-16.3 297.95-16.3Q298.85-17.45 300-18.95L300-18.95Q301.4-20.75 301.9-20.75 302.4-20.75 303.15-20.35 303.9-19.95 303.9-19.4 303.9-18.85 301.5-16.15L301.5-16.15Q302.8-16.1 304.9-16.1ZM309.25 0.65L309.25 0.65Q308.7 0.65 308.25 0.5L308.25 0.5Q305.05-0.4 305.05-3.1L305.05-3.1Q305.05-6.6 309.45-11.2 313.85-15.8 317.35-15.8L317.35-15.8Q318.5-15.8 319.23-15.18 319.95-14.55 319.95-13.65L319.95-13.65Q319.95-10.85 315.73-8.3 311.5-5.75 308.85-5.75L308.85-5.75Q308.45-5.75 308.15-5.85L308.15-5.85Q307.4-4.5 307.4-3L307.4-3Q307.4-0.4 309.88-0.4 312.35-0.4 316.3-3.75L316.3-3.75Q319.35-6.2 321.5-8.95L321.5-8.95Q321.95-9.55 322.28-9.55 322.6-9.55 322.6-9.25 322.6-8.95 322.2-8.4L322.2-8.4Q319.5-4.85 315.7-2.1 311.9 0.65 309.25 0.65ZM318.7-13.75L318.7-13.75Q318.7-14.35 317.43-14.35 316.15-14.35 313.8-12.4L313.8-12.4Q310.65-9.8 308.9-6.95L308.9-6.95Q309.2-6.85 309.55-6.85L309.55-6.85Q311.45-6.85 314.63-8.88 317.8-10.9 318.6-13.3L318.6-13.3Q318.7-13.55 318.7-13.75Z" opacity="1" transform="matrix(1,0,0,1,0,0)" fill="#ffffff" class="wordmark-text-0" data-fill-palette-color="primary" id="text-0"></path></svg></g></svg></g><g transform="matrix(1,0,0,1,0,54.39443260788529)"><svg viewBox="0 0 395.52 27.195544086021496" height="27.195544086021496" width="395.52"><g transform="matrix(1,0,0,1,0,0)"><svg width="395.52" viewBox="0.75 -35.8 753.36 51.8" height="27.195544086021496" data-palette-color="#f8fddd"><path d="M9.9-22.15L9.9-22.15 9.9-21.45 18.75-21.45 18.75-21.55Q18.8-22.75 18.8-24.58 18.8-26.4 18.75-27.78 18.7-29.15 18.65-30.1 18.6-31.05 18.53-31.75 18.45-32.45 18.4-32.83 18.35-33.2 18.35-33.5 18.35-33.8 18.9-34.2L18.9-34.2Q21.3-35.8 24.25-35.8L24.25-35.8Q26.1-35.8 26.1-35.15L26.1-35.15Q26.1-35.1 26-34.6L26-34.6Q25.05-29.85 24.8-21.45L24.8-21.45Q24.65-13.05 24.65-12.45L24.65-12.45Q24.65-4.7 25.55-1.7L25.55-1.7Q25.7-1.3 25.7-1.03 25.7-0.75 25.3-0.4L25.3-0.4Q23.45 0.8 20.5 0.8L20.5 0.8Q18.6 0.8 18.35-0.5L18.35-0.5Q18.2-1.2 18.2-2.68 18.2-4.15 18.38-7.2 18.55-10.25 18.65-17.85L18.65-17.85 9.9-17.85Q9.9-6.45 10.6-1.85L10.6-1.85Q10.6-0.65 8.3 0.13 6 0.9 4.5 0.9 3 0.9 3 0.45L3 0.45Q3 0.15 3.15-0.3L3.15-0.3Q4.1-2.4 4.1-17.2L4.1-17.2 4.1-17.85 1.15-17.85Q0.75-17.85 0.75-18.15L0.75-18.15Q0.75-18.25 0.95-18.93 1.15-19.6 1.88-20.5 2.6-21.4 3.5-21.4L3.5-21.4 4.05-21.4Q4.05-31.25 2.9-32.75L2.9-32.75 2.7-33.05Q2.4-33.3 2.4-33.68 2.4-34.05 2.95-34.3L2.95-34.3Q3.7-34.75 5.63-35.2 7.55-35.65 9.1-35.65 10.65-35.65 10.65-34.95L10.65-34.95 10.65-34.8Q10.05-29.6 9.9-22.15ZM132.84-22.25L132.84-22.25Q131.94-16.85 131.94-8.5L131.94-8.5Q131.94-2.35 132.44-0.4L132.44-0.4 132.64 0.25Q132.64 0.9 131.54 0.9L131.54 0.9Q127.69 0.9 127.14-1.25L127.14-1.25Q127.09-1.5 126.91-1.5 126.74-1.5 126.59-1.3L126.59-1.3Q125.04 0.75 121.79 0.75L121.79 0.75Q119.99 0.75 118.04-0.15L118.04-0.15Q116.84-0.7 116.09-2.08 115.34-3.45 115.34-5.45L115.34-5.45 116.09-16.4Q116.09-19.85 115.39-21.3L115.39-21.3Q115.14-21.85 115.14-22L115.14-22Q115.14-22.3 115.39-22.4L115.39-22.4Q116.19-22.65 117.44-22.65L117.44-22.65Q122.29-22.65 122.29-18.65L122.29-18.65Q122.29-17.4 121.26-12.95 120.24-8.5 120.24-6.63 120.24-4.75 121.06-3.75 121.89-2.75 123.36-2.75 124.84-2.75 125.69-3.8 126.54-4.85 126.69-5.9L126.69-5.9 126.84-6.95Q127.04-8.7 127.04-13.1 127.04-17.5 126.76-18.68 126.49-19.85 126.49-20.15L126.49-20.15Q126.49-21.4 128.49-22.13 130.49-22.85 132.09-22.85L132.09-22.85Q132.84-22.85 132.84-22.25ZM221.42 0.35L221.42 0.35Q222.32-5.05 222.32-12.6 222.32-20.15 221.87-22.4L221.87-22.4Q221.87-23.05 223.37-23.05L223.37-23.05Q225.67-23.05 226.42-21.3L226.42-21.3Q226.47-21.15 226.67-21.15 226.87-21.15 226.97-21.25L226.97-21.25Q228.52-22.85 231.77-22.85 235.02-22.85 236.92-21.2 238.82-19.55 238.82-16.4L238.82-16.4Q238.82-14.5 238.5-11 238.17-7.5 238.17-5.8L238.17-5.8Q238.17-1.75 239.52 0.05L239.52 0.05Q239.72 0.3 239.72 0.55L239.72 0.55Q239.72 1.2 238.32 1.2L238.32 1.2Q232.12 1.2 232.12-4.3L232.12-4.3Q232.12-6.4 233.07-10.15 234.02-13.9 234.02-15.85L234.02-15.85Q234.02-19.85 230.72-19.85L230.72-19.85Q229.12-19.85 228.3-18.9 227.47-17.95 227.37-16.73 227.27-15.5 227.27-12.1L227.27-12.1Q227.27-6.9 227.62-3.05L227.62-3.05 227.72-1.95Q227.72-0.55 225.9 0.23 224.07 1 222.75 1 221.42 1 221.42 0.35ZM330.86-20.18Q331.96-21.3 333.76-22.08 335.56-22.85 337.21-22.85 338.86-22.85 340.56-22.1L340.56-22.1Q340.76-22.1 340.86-22.2L340.86-22.2Q342.16-23.5 344.66-23.5L344.66-23.5Q345.26-23.5 345.26-22.95L345.26-22.95Q345.26-22.9 345.16-22.5 345.06-22.1 344.91-21.33 344.76-20.55 344.66-19.45L344.66-19.45Q344.31-16.6 344.28-13.15 344.26-9.7 344.26-6.25L344.26-6.25 344.41 4.25Q344.41 9.3 341.81 12.65L341.81 12.65Q340.76 14 338.63 15 336.51 16 333.66 16L333.66 16Q333.01 15.6 333.01 15.2 333.01 14.8 333.56 14.55L333.56 14.55Q336.71 13.1 338.06 7.68 339.41 2.25 339.41-8.8L339.41-8.8 339.31-15.8 339.16-19.2Q339.16-19.65 337.76-19.85L337.76-19.85Q335.96-19.85 334.73-18.68 333.51-17.5 333.06-15.6L333.06-15.6Q332.26-12.55 332.26-10.33 332.26-8.1 332.98-6.4 333.71-4.7 335.51-4.7L335.51-4.7Q336.01-4.7 336.43-4.9 336.86-5.1 337.01-5.1L337.01-5.1Q337.51-5.1 337.51-4.1 337.51-3.1 337.36-2.48 337.21-1.85 336.76-1.1L336.76-1.1Q335.76 0.55 332.86 0.55L332.86 0.55Q329.96 0.55 328.71-1.55L328.71-1.55Q327.41-3.7 327.21-5.4L327.21-5.4Q326.91-7.95 326.91-8.75 326.91-9.55 326.93-10.03 326.96-10.5 327.18-11.93 327.41-13.35 327.78-14.63 328.16-15.9 328.96-17.48 329.76-19.05 330.86-20.18ZM449.2-17.2L448.95-13.4 449.15-11.65Q449.15-10.7 447.35-10.7L447.35-10.7Q443.7-10.7 443.7-13.45L443.7-13.45Q443.7-14.1 444.05-15.25 444.4-16.4 444.4-17.25 444.4-18.1 443.9-18.73 443.4-19.35 442.45-19.35 441.5-19.35 440.82-18.68 440.15-18 440-17.3L440-17.3 439.8-16.6Q439.5-15.05 439.5-11.43 439.5-7.8 439.6-5.73 439.7-3.65 439.8-2.88 439.9-2.1 439.9-1.95L439.9-1.95Q439.9-0.7 438.35 0.08 436.8 0.85 435.25 0.85 433.7 0.85 433.7 0.2L433.7 0.2 433.95-1.35Q434.65-5.7 434.65-12.7 434.65-19.7 434.15-22.2L434.15-22.2Q434.15-22.8 435.2-22.8L435.2-22.8Q437.9-22.8 438.8-20.95L438.8-20.95Q438.85-20.75 438.97-20.75 439.1-20.75 439.65-21.2L439.65-21.2Q441.3-22.55 443.55-22.55L443.55-22.55Q444.95-22.55 446.35-22L446.35-22Q449.2-20.85 449.2-17.2L449.2-17.2ZM542.78-26.75L542.78-26.75 541.58-26.8Q540.23-26.8 539.83-26.15L539.83-26.15Q539.73-26 539.58-26L539.58-26Q538.93-26 538.93-28.23 538.93-30.45 539.61-31.05 540.28-31.65 541.96-31.65 543.63-31.65 544.23-31.08 544.83-30.5 544.83-29.15 544.83-27.8 544.38-27.28 543.93-26.75 542.78-26.75ZM538.78-1.5L538.78-1.5 539.33-13.15Q539.33-17.3 538.38-18.8L538.38-18.8Q538.08-19.3 537.68-19.55L537.68-19.55Q537.38-19.65 537.38-19.95L537.38-19.95Q537.38-20.85 539.93-21.7 542.48-22.55 543.66-22.55 544.83-22.55 544.88-21.95L544.88-21.95Q544.88-20.95 544.61-16.28 544.33-11.6 544.33-6.45 544.33-1.3 544.93-0.05L544.93-0.05Q545.08 0.2 545.08 0.45L545.08 0.45Q545.08 1.1 543.18 1.1 541.28 1.1 539.28 0.1L539.28 0.1Q538.78-0.15 538.78-1.5ZM639.07-12.7L639.07-12.7 639.12-11.45Q639.12-11.15 639.52-11.15L639.52-11.15Q641.12-11.3 642.32-11.98 643.52-12.65 644.12-13.5L644.12-13.5Q645.32-15.35 645.42-16.7L645.42-16.7 645.47-17.3Q645.47-20 643.32-20L643.32-20Q641.72-20 640.72-18.6L640.72-18.6Q639.07-16.4 639.07-12.7ZM649.97-6.05L649.97-6.05Q649.97-4.15 649.19-2.73 648.42-1.3 647.44-0.63 646.47 0.05 645.17 0.45L645.17 0.45Q643.52 0.95 642.02 0.95L642.02 0.95Q637.82 0.95 635.82-2.2 633.82-5.35 633.82-10.23 633.82-15.1 636.29-18.9 638.77-22.7 643.72-22.7L643.72-22.7Q648.22-22.7 649.82-19.55L649.82-19.55Q650.47-18.35 650.47-17.28 650.47-16.2 650.37-15.58 650.27-14.95 649.67-13.7 649.07-12.45 648.07-11.45 647.07-10.45 644.92-9.55 642.77-8.65 639.87-8.35L639.87-8.35Q639.47-8.35 639.47-8L639.47-8Q639.47-7.55 639.79-6.68 640.12-5.8 640.52-5.2L640.52-5.2Q641.62-3.8 643.77-3.8L643.77-3.8Q645.92-3.8 647.42-5.2L647.42-5.2Q648.22-5.95 648.72-7.05L648.72-7.05Q648.92-7.45 649.24-7.45 649.57-7.45 649.77-6.9 649.97-6.35 649.97-6.05ZM754.11-6.85L754.11-6.85Q754.11-4.7 753.28-3.1 752.46-1.5 751.41-0.75 750.36 0 748.91 0.45L748.91 0.45Q747.01 1.05 745.46 1.05L745.46 1.05Q742.21 1.05 740.06-0.23 737.91-1.5 737.91-4.3L737.91-4.3Q737.91-5.95 738.81-7L738.81-7Q740.21-8.55 742.16-8.55L742.16-8.55Q742.76-8.55 742.76-8L742.76-8Q742.76-7.95 742.53-7.23 742.31-6.5 742.31-5.4 742.31-4.3 743.18-3.45 744.06-2.6 745.31-2.6 746.56-2.6 747.31-3.03 748.06-3.45 748.36-4.1L748.36-4.1Q748.81-5 748.81-5.8L748.81-5.8Q748.81-7.25 747.36-8.3 745.91-9.35 744.16-9.95 742.41-10.55 740.96-11.95 739.51-13.35 739.51-15.45L739.51-15.45Q739.51-19.05 741.78-20.85 744.06-22.65 747.96-22.65L747.96-22.65Q749.66-22.65 751.53-22.18 753.41-21.7 753.41-20.58 753.41-19.45 753.03-18.5 752.66-17.55 752.11-17.55L752.11-17.55Q751.81-17.55 751.71-17.78 751.61-18 751.36-18.3 751.11-18.6 750.16-19.07 749.21-19.55 748.53-19.55 747.86-19.55 747.63-19.53 747.41-19.5 746.86-19.38 746.31-19.25 745.86-19L745.86-19Q744.71-18.35 744.71-17.1L744.71-17.1Q744.71-16.3 745.06-15.93 745.41-15.55 745.61-15.35 745.81-15.15 746.31-14.88 746.81-14.6 747.01-14.5 747.21-14.4 747.91-14.08 748.61-13.75 748.81-13.65L748.81-13.65Q754.11-11.15 754.11-6.85Z" opacity="1" transform="matrix(1,0,0,1,0,0)" fill="#ffffff" class="slogan-text-1" data-fill-palette-color="secondary" id="text-1"></path></svg></g></svg></g></svg></g></svg></g><g transform="matrix(1,0,0,1,97.6648590314337,0)"><svg viewBox="0 0 200.19028193713257 200.19028193713257" height="200.19028193713257" width="200.19028193713257"><g><svg></svg></g><g id="icon-0"><svg viewBox="0 0 200.19028193713257 200.19028193713257" height="200.19028193713257" width="200.19028193713257"><g><path d="M0 100.095c0-55.281 44.814-100.095 100.095-100.095 55.281 0 100.095 44.814 100.095 100.095 0 55.281-44.814 100.095-100.095 100.095-55.281 0-100.095-44.814-100.095-100.095zM100.095 196.222c53.089 0 96.127-43.037 96.127-96.127 0-53.089-43.037-96.127-96.127-96.127-53.089 0-96.127 43.037-96.127 96.127 0 53.089 43.037 96.127 96.127 96.127z" data-fill-palette-color="accent" fill="#ffffff" stroke="transparent"></path><ellipse rx="99.09418955888061" ry="99.09418955888061" cx="100.09514096856628" cy="100.09514096856628" fill="#ffffff" stroke="transparent" stroke-width="0" fill-opacity="1" data-fill-palette-color="accent"></ellipse></g><g transform="matrix(1,0,0,1,59.98370483057495,40.76528257535283)"><svg viewBox="0 0 80.22287227598267 118.65971678642691" height="118.65971678642691" width="80.22287227598267"><g><svg xmlns="http://www.w3.org/2000/svg" xml:space="preserve" viewBox="17.4 1.779999999999995 65.20000037880132 96.439" x="0" y="0" height="118.65971678642691" width="80.22287227598267" class="icon-dxe-0" data-fill-palette-color="quaternary" id="dxe-0"><path d="M50 28.651c4.166 0 7.221-0.995 8.332-1.936l6.072-13.256c0-3.433-6.449-6.216-14.404-6.216s-14.403 2.783-14.403 6.216l6.14 13.312c1.166 0.924 4.18 1.88 8.263 1.88" fill="#000000" data-fill-palette-color="quaternary"></path><path d="M50 4.512c8.516 0 17.137 3.073 17.137 8.947v0.595l-5.893 12.863q1.05 1.415 2.082 2.797c8.877 11.889 16.543 22.156 16.542 35.904 0 16.47-13.399 29.868-29.868 29.868S20.132 82.088 20.132 65.618c0-13.354 7.623-23.66 16.449-35.594q1.112-1.503 2.244-3.043l-5.96-12.923v-0.6c0-5.873 8.62-8.946 17.135-8.946m0-2.732c-9.568 0-19.866 3.655-19.866 11.679v0.6c0 0.395 0.085 0.785 0.251 1.144l5.285 11.458-1.237 1.675-0.048 0.064C25.271 40.723 17.4 51.364 17.4 65.618c0 17.976 14.624 32.601 32.6 32.601 17.977 0 32.6-14.625 32.6-32.601 0.002-14.656-7.916-25.26-17.084-37.539l-0.062-0.083-1.053-1.412L69.62 15.19a2.7 2.7 0 0 0 0.248-1.138v-0.595C69.867 5.435 59.568 1.78 50 1.78" fill="#000000" data-fill-palette-color="quaternary"></path><path d="M59 28.473c-1.979 1.317-5.499 1.999-9 1.999-3.455 0-6.929-0.665-8.922-1.948-9.472 12.914-18.215 23.537-18.215 37.094 0 14.473 11.33 26.295 25.603 27.091v-8.375l-4.269-3.98v-4.109l5.8 5.009 5.805-5.009v4.109l-4.268 3.98v8.375c14.272-0.796 25.603-12.619 25.603-27.091 0-13.893-8.67-24.372-18.137-37.145M42.625 48.188l6.06 5.105v5.616s-4.735-4.181-5.663-5.106c-0.926-0.927-0.397-5.615-0.397-5.615m5.988 28.441s-5.003-4.443-5.663-5.104c-0.658-0.66-0.396-5.616-0.396-5.616l6.06 5.104z m0.093-8.774s-4.748-4.189-5.663-5.104c-0.913-0.914-0.396-5.615-0.396-5.615l6.06 5.104z m-2.302-21.044l3.594-6.829 3.598 6.829-3.598 2.908zM56.9 71.525c-1.051 0.949-5.662 5.104-5.662 5.104v-5.615l6.059-5.104c0-0.001 0.656 4.666-0.397 5.615m0.094-8.773c-0.824 0.824-5.662 5.104-5.662 5.104v-5.613l6.059-5.104c0-0.002 0.427 4.789-0.397 5.613m-0.021-8.949c-0.938 0.848-5.662 5.106-5.662 5.106v-5.616l6.06-5.105c-0.002 0 0.543 4.766-0.398 5.615" fill="#000000" data-fill-palette-color="quaternary"></path></svg></g></svg></g></svg></g></svg></g><g></g></svg></g><defs></defs></svg><rect width="323.15343078027234" height="247.2" fill="none" stroke="none" visibility="hidden"></rect></g></svg></g></svg>